<?xml version="1.0" encoding="utf-8"?>
<!-- Generator: Adobe Illustrator 15.0.2, SVG Export Plug-In  -->
<!DOCTYPE svg PUBLIC "-//W3C//DTD SVG 1.1//EN" "http://www.w3.org/Graphics/SVG/1.1/DTD/svg11.dtd" [
	<!ENTITY ns_flows "http://ns.adobe.com/Flows/1.0/">
]>
<svg version="1.1"
	 xmlns="http://www.w3.org/2000/svg" xmlns:xlink="http://www.w3.org/1999/xlink" xmlns:a="http://ns.adobe.com/AdobeSVGViewerExtensions/3.0/"
	 x="0px" y="0px" width="300px" height="55px" viewBox="-1 -0.137 300 55" enable-background="new -1 -0.137 300 55"
	 xml:space="preserve">
<defs>
</defs>
<path fill="#FF3C1E" d="M5.414,13.04l-0.729,2.094c-0.065,0.198-0.135,0.43-0.204,0.696c-0.071,0.266-0.105,0.498-0.105,0.696
	c0,0.159,0.032,0.297,0.099,0.417c0.065,0.119,0.153,0.216,0.259,0.291c0.107,0.076,0.229,0.133,0.364,0.173
	c0.137,0.04,0.279,0.06,0.428,0.06h1.063v1.297H0v-1.297h0.309c0.223,0,0.426-0.024,0.612-0.071
	c0.185-0.047,0.357-0.137,0.519-0.268c0.162-0.13,0.313-0.311,0.457-0.541c0.145-0.231,0.291-0.528,0.439-0.893L7.824,1.368h3.474
	l5.29,14.349c0.124,0.342,0.254,0.625,0.39,0.851c0.136,0.226,0.284,0.404,0.444,0.535c0.161,0.131,0.332,0.225,0.513,0.28
	c0.181,0.056,0.37,0.083,0.569,0.083h0.457v1.297h-8.357v-1.297h0.989c0.124,0,0.251-0.018,0.384-0.054
	c0.132-0.035,0.249-0.091,0.353-0.166c0.103-0.076,0.187-0.173,0.253-0.292c0.066-0.119,0.099-0.262,0.099-0.428
	c0-0.198-0.025-0.389-0.074-0.571c-0.05-0.183-0.1-0.341-0.149-0.476L11.57,13.04H5.414z M9.727,7.555
	C9.637,7.277,9.544,6.986,9.45,6.68S9.26,6.064,9.165,5.746C9.07,5.429,8.98,5.115,8.894,4.8C8.806,4.487,8.73,4.188,8.665,3.902
	c-0.075,0.247-0.161,0.516-0.26,0.81S8.201,5.307,8.09,5.616c-0.111,0.31-0.223,0.618-0.335,0.927
	C7.644,6.853,7.54,7.151,7.441,7.437l-1.496,4.116h5.118L9.727,7.555z"/>
<path fill="#FF3C1E" d="M29.975,7.721c0-0.293-0.116-0.488-0.351-0.583c-0.235-0.095-0.551-0.143-0.946-0.143h-0.075V5.699h5.847
	v1.297h-0.222c-0.247,0-0.468,0.021-0.662,0.065s-0.387,0.123-0.581,0.238c-0.194,0.115-0.393,0.273-0.599,0.476
	c-0.207,0.202-0.444,0.462-0.717,0.779l-2.609,3.07l3.72,4.557c0.388,0.468,0.745,0.8,1.07,0.994
	c0.325,0.193,0.645,0.291,0.958,0.291h0.334v1.297h-8.061v-1.297h0.136c1.014,0,1.521-0.266,1.521-0.797
	c0-0.095-0.013-0.19-0.038-0.286c-0.023-0.095-0.069-0.206-0.135-0.333c-0.066-0.126-0.163-0.275-0.291-0.446
	c-0.128-0.17-0.294-0.375-0.5-0.612l-1.446-1.689l-1.768,2.118c-0.156,0.198-0.284,0.401-0.382,0.606
	c-0.1,0.207-0.149,0.413-0.149,0.619c0,0.27,0.119,0.475,0.358,0.613c0.239,0.14,0.642,0.208,1.211,0.208h0.075v1.297h-6.428v-1.297
	h0.222c0.306,0,0.573-0.025,0.803-0.078c0.231-0.051,0.447-0.136,0.65-0.256c0.202-0.119,0.406-0.277,0.611-0.476
	c0.207-0.198,0.437-0.448,0.692-0.75l3.189-3.701l-3.189-3.926c-0.354-0.429-0.708-0.75-1.063-0.964
	c-0.354-0.214-0.725-0.321-1.113-0.321h-0.333V5.699h7.961v1.297h-0.087c-0.288,0-0.525,0.018-0.71,0.054
	c-0.186,0.035-0.332,0.085-0.439,0.148c-0.107,0.063-0.181,0.139-0.222,0.226c-0.042,0.087-0.063,0.178-0.063,0.273
	c0,0.175,0.045,0.343,0.136,0.506c0.091,0.163,0.239,0.367,0.445,0.613l1.409,1.666l1.199-1.392c0.198-0.246,0.353-0.48,0.463-0.702
	C29.919,8.166,29.975,7.943,29.975,7.721z"/>
<path fill="#FF3C1E" d="M36.044,17.466c0.189,0,0.39-0.018,0.599-0.054c0.21-0.035,0.404-0.109,0.582-0.22
	c0.177-0.111,0.325-0.27,0.444-0.477c0.12-0.206,0.179-0.483,0.179-0.832V8.483c0-0.325-0.059-0.585-0.179-0.779
	c-0.119-0.194-0.27-0.345-0.451-0.452c-0.182-0.107-0.376-0.176-0.586-0.208c-0.21-0.032-0.407-0.047-0.587-0.047h-0.296V5.699
	h5.945v10.185c0,0.349,0.061,0.626,0.18,0.832c0.12,0.207,0.268,0.365,0.445,0.477c0.177,0.111,0.374,0.185,0.587,0.22
	c0.214,0.036,0.412,0.054,0.594,0.054h0.296v1.297h-8.047v-1.297H36.044z M37.491,1.749c0-0.309,0.055-0.574,0.166-0.796
	c0.111-0.222,0.265-0.403,0.458-0.542c0.193-0.14,0.421-0.242,0.68-0.309C39.054,0.034,39.337,0,39.642,0
	c0.288,0,0.564,0.034,0.829,0.102c0.264,0.067,0.495,0.169,0.691,0.309c0.198,0.138,0.356,0.319,0.477,0.542
	c0.12,0.222,0.178,0.488,0.178,0.796c0,0.302-0.059,0.563-0.178,0.786c-0.12,0.222-0.278,0.405-0.477,0.547
	c-0.197,0.144-0.428,0.25-0.691,0.322c-0.264,0.071-0.541,0.107-0.829,0.107c-0.305,0-0.587-0.037-0.847-0.107
	c-0.259-0.071-0.487-0.178-0.68-0.322c-0.193-0.142-0.346-0.325-0.458-0.547C37.546,2.312,37.491,2.05,37.491,1.749z"/>
<path fill="#FF3C1E" d="M50.074,19c-0.915,0-1.696-0.071-2.342-0.214c-0.646-0.143-1.175-0.342-1.582-0.595
	c-0.409-0.255-0.705-0.555-0.891-0.905c-0.186-0.349-0.277-0.726-0.277-1.13c0-0.397,0.08-0.715,0.241-0.957
	c0.16-0.242,0.362-0.431,0.606-0.565c0.242-0.134,0.5-0.224,0.772-0.268c0.271-0.043,0.519-0.065,0.741-0.065
	c0,0.507,0.067,0.963,0.199,1.368c0.131,0.404,0.316,0.747,0.556,1.029c0.239,0.282,0.525,0.498,0.858,0.649
	c0.335,0.15,0.707,0.226,1.119,0.226c0.437,0,0.814-0.043,1.131-0.131c0.317-0.087,0.577-0.208,0.778-0.363
	c0.203-0.155,0.353-0.333,0.451-0.535c0.1-0.203,0.149-0.415,0.149-0.637c0-0.27-0.051-0.509-0.155-0.72
	c-0.103-0.209-0.273-0.408-0.513-0.595c-0.239-0.186-0.558-0.369-0.958-0.547c-0.399-0.179-0.896-0.367-1.489-0.565
	c-0.685-0.23-1.288-0.474-1.811-0.732c-0.524-0.257-0.965-0.551-1.323-0.88c-0.358-0.33-0.63-0.706-0.816-1.13
	c-0.185-0.424-0.277-0.911-0.277-1.458c0-0.651,0.129-1.218,0.389-1.701c0.26-0.484,0.629-0.886,1.107-1.208
	c0.478-0.321,1.05-0.562,1.718-0.72c0.667-0.158,1.41-0.238,2.225-0.238c0.799,0,1.479,0.066,2.04,0.197s1.017,0.303,1.372,0.518
	c0.354,0.214,0.614,0.456,0.778,0.726c0.166,0.27,0.247,0.543,0.247,0.82c0,0.548-0.2,0.964-0.6,1.25
	c-0.399,0.285-1.061,0.428-1.983,0.428c0-0.809-0.188-1.438-0.563-1.886c-0.375-0.448-0.93-0.671-1.662-0.671
	c-0.272,0-0.535,0.031-0.785,0.095c-0.251,0.063-0.469,0.159-0.656,0.286c-0.185,0.126-0.333,0.283-0.445,0.47
	s-0.166,0.406-0.166,0.661c0,0.261,0.051,0.496,0.154,0.702c0.103,0.207,0.285,0.403,0.543,0.589
	c0.26,0.187,0.612,0.375,1.057,0.565c0.446,0.191,1.015,0.401,1.706,0.631c0.56,0.19,1.077,0.406,1.551,0.648
	c0.474,0.242,0.882,0.52,1.224,0.833c0.342,0.313,0.607,0.67,0.797,1.071c0.188,0.4,0.284,0.858,0.284,1.374
	c0,0.674-0.122,1.277-0.365,1.809c-0.242,0.532-0.599,0.979-1.069,1.344c-0.47,0.366-1.046,0.645-1.73,0.84
	C51.727,18.903,50.947,19,50.074,19z"/>
<path fill="#FF3C1E" d="M69.086,5.83l2.472,7.187c0.206,0.587,0.355,1.084,0.445,1.494c0.092,0.408,0.166,0.763,0.222,1.064h0.075
	c0.041-0.206,0.081-0.401,0.118-0.583c0.037-0.183,0.082-0.373,0.136-0.571c0.053-0.199,0.113-0.415,0.179-0.648
	c0.065-0.234,0.148-0.501,0.248-0.803l1.112-3.558c0.066-0.206,0.121-0.428,0.167-0.666c0.045-0.238,0.067-0.424,0.067-0.56
	c0-0.412-0.138-0.713-0.414-0.903c-0.276-0.191-0.698-0.286-1.267-0.286h-0.173V5.699h5.797v1.297h-0.321
	c-0.248,0-0.461,0.023-0.643,0.071c-0.181,0.047-0.342,0.141-0.481,0.279c-0.141,0.139-0.272,0.333-0.396,0.583
	c-0.124,0.25-0.251,0.573-0.383,0.97l-3.263,9.864H70.05l-2.769-8.091l-2.905,8.091H61.62L58.369,8.281
	c-0.091-0.254-0.19-0.463-0.296-0.631c-0.107-0.166-0.23-0.297-0.371-0.392c-0.14-0.095-0.301-0.163-0.482-0.203
	c-0.181-0.039-0.396-0.059-0.643-0.059h-0.075V5.699h7.417v1.297h-0.333c-0.511,0-0.892,0.069-1.143,0.208
	c-0.252,0.139-0.378,0.411-0.378,0.815c0,0.135,0.023,0.297,0.069,0.488c0.044,0.19,0.093,0.377,0.142,0.559l0.939,3.165
	c0.083,0.294,0.161,0.595,0.235,0.904c0.075,0.31,0.145,0.611,0.21,0.905c0.066,0.293,0.125,0.571,0.18,0.833
	c0.053,0.262,0.096,0.496,0.129,0.702h0.074c0.073-0.405,0.175-0.824,0.304-1.255c0.126-0.432,0.298-0.95,0.512-1.553l2.584-6.937
	H69.086z"/>
<path fill="#FF3C1E" d="M85.995,19c-1.07,0-2.016-0.151-2.836-0.452c-0.82-0.302-1.506-0.737-2.058-1.309
	c-0.553-0.571-0.969-1.271-1.249-2.1c-0.281-0.829-0.421-1.775-0.421-2.837c0-1.143,0.14-2.146,0.421-3.011
	c0.28-0.865,0.688-1.586,1.224-2.165c0.535-0.579,1.193-1.013,1.972-1.303c0.778-0.29,1.667-0.435,2.664-0.435
	c0.914,0,1.738,0.125,2.473,0.375c0.733,0.25,1.355,0.62,1.865,1.112c0.512,0.493,0.903,1.103,1.174,1.833
	c0.272,0.73,0.409,1.579,0.409,2.546v1.249h-8.295c0.024,0.817,0.117,1.519,0.278,2.106c0.161,0.587,0.383,1.071,0.667,1.452
	c0.285,0.38,0.631,0.662,1.038,0.845c0.409,0.182,0.876,0.273,1.403,0.273c0.437,0,0.841-0.049,1.212-0.148
	c0.37-0.099,0.707-0.239,1.007-0.417c0.301-0.179,0.565-0.389,0.792-0.631c0.226-0.242,0.415-0.501,0.563-0.779
	c0.453,0.238,0.68,0.635,0.68,1.19c0,0.349-0.099,0.68-0.296,0.993c-0.198,0.313-0.503,0.589-0.915,0.828
	c-0.413,0.238-0.929,0.428-1.552,0.571C87.593,18.929,86.853,19,85.995,19z M85.76,6.972c-0.708,0-1.271,0.337-1.687,1.011
	c-0.416,0.675-0.644,1.662-0.686,2.963h4.375c0-0.619-0.038-1.174-0.111-1.666s-0.191-0.908-0.353-1.25
	c-0.16-0.341-0.367-0.603-0.618-0.785C86.431,7.063,86.123,6.972,85.76,6.972z"/>
<path fill="#FF3C1E" d="M107.937,12.183c0,1.182-0.113,2.201-0.34,3.058c-0.227,0.857-0.558,1.565-0.995,2.124
	c-0.437,0.56-0.979,0.972-1.626,1.238c-0.647,0.266-1.391,0.398-2.23,0.398c-0.486,0-0.927-0.051-1.323-0.155
	c-0.395-0.103-0.751-0.25-1.069-0.44c-0.317-0.189-0.596-0.416-0.84-0.678c-0.243-0.262-0.455-0.551-0.637-0.869h-0.235
	l-0.704,1.904h-4.809v-1.297h0.173c0.239,0,0.474-0.02,0.705-0.06s0.437-0.119,0.618-0.238c0.181-0.119,0.328-0.29,0.438-0.512
	c0.111-0.222,0.167-0.52,0.167-0.892v-12.6c0-0.349-0.054-0.629-0.161-0.838c-0.107-0.21-0.251-0.375-0.432-0.494
	c-0.182-0.119-0.394-0.198-0.637-0.237c-0.243-0.04-0.5-0.06-0.772-0.06h-0.099V0.25h5.945v4.164c0,0.254-0.009,0.552-0.03,0.893
	C99.022,5.647,99,5.968,98.974,6.27c-0.032,0.357-0.065,0.722-0.099,1.094h0.174c0.361-0.603,0.846-1.078,1.452-1.428
	c0.605-0.349,1.386-0.523,2.342-0.523c0.824,0,1.551,0.133,2.181,0.399c0.631,0.266,1.162,0.674,1.595,1.225
	c0.432,0.552,0.761,1.254,0.983,2.106C107.826,9.996,107.937,11.009,107.937,12.183z M101.657,7.21
	c-0.502,0-0.919,0.101-1.248,0.304c-0.33,0.202-0.593,0.509-0.791,0.922c-0.199,0.412-0.338,0.93-0.42,1.553
	c-0.083,0.623-0.125,1.354-0.125,2.195c0,0.801,0.042,1.513,0.125,2.136c0.083,0.623,0.222,1.146,0.42,1.571
	c0.198,0.424,0.465,0.745,0.804,0.963c0.337,0.218,0.757,0.327,1.26,0.327c0.833,0,1.434-0.432,1.805-1.296
	c0.371-0.865,0.556-2.106,0.556-3.725c0-1.657-0.186-2.897-0.556-3.718C103.115,7.62,102.506,7.21,101.657,7.21z"/>
<path fill="#41494E" d="M133.722,9.744c0,1.333-0.189,2.553-0.568,3.659c-0.38,1.107-0.946,2.056-1.699,2.85
	c-0.754,0.792-1.69,1.41-2.806,1.849c-1.117,0.44-2.413,0.661-3.889,0.661h-8.355v-1.297h1.062c0.191,0,0.363-0.018,0.52-0.054
	c0.157-0.035,0.292-0.109,0.408-0.22c0.115-0.111,0.207-0.27,0.272-0.477c0.066-0.206,0.099-0.483,0.099-0.832V4.14
	c0-0.324-0.032-0.585-0.099-0.779c-0.065-0.195-0.159-0.343-0.278-0.446c-0.12-0.104-0.258-0.172-0.415-0.208
	c-0.157-0.035-0.326-0.054-0.508-0.054h-1.062V1.368h8.355c1.401,0,2.657,0.177,3.764,0.53c1.108,0.353,2.048,0.88,2.819,1.582
	c0.77,0.702,1.359,1.576,1.767,2.624C133.518,7.151,133.722,8.364,133.722,9.744z M129.445,9.744c0-2.323-0.442-4.053-1.33-5.187
	c-0.885-1.134-2.19-1.701-3.912-1.701h-1.446v14.396h1.421c0.866,0,1.627-0.173,2.288-0.518c0.659-0.345,1.208-0.843,1.649-1.494
	c0.442-0.65,0.773-1.438,0.996-2.362C129.333,11.956,129.445,10.91,129.445,9.744z"/>
<path fill="#41494E" d="M142.869,19c-1.072,0-2.018-0.151-2.836-0.452c-0.82-0.302-1.507-0.737-2.059-1.309
	c-0.552-0.571-0.967-1.271-1.248-2.1c-0.281-0.829-0.42-1.775-0.42-2.837c0-1.143,0.139-2.146,0.42-3.011
	c0.281-0.865,0.688-1.586,1.223-2.165c0.536-0.579,1.193-1.013,1.972-1.303c0.779-0.29,1.667-0.435,2.664-0.435
	c0.916,0,1.739,0.125,2.473,0.375c0.734,0.25,1.356,0.62,1.867,1.112c0.511,0.493,0.902,1.103,1.173,1.833
	c0.272,0.73,0.408,1.579,0.408,2.546v1.249h-8.294c0.024,0.817,0.117,1.519,0.279,2.106c0.16,0.587,0.382,1.071,0.667,1.452
	c0.284,0.38,0.629,0.662,1.039,0.845c0.407,0.182,0.875,0.273,1.402,0.273c0.437,0,0.84-0.049,1.211-0.148s0.707-0.239,1.008-0.417
	c0.3-0.179,0.564-0.389,0.791-0.631c0.227-0.242,0.414-0.501,0.563-0.779c0.453,0.238,0.68,0.635,0.68,1.19
	c0,0.349-0.099,0.68-0.297,0.993c-0.197,0.313-0.502,0.589-0.915,0.828c-0.411,0.238-0.929,0.428-1.55,0.571
	C144.465,18.929,143.727,19,142.869,19z M142.634,6.972c-0.708,0-1.271,0.337-1.687,1.011c-0.417,0.675-0.646,1.662-0.686,2.963
	h4.375c0-0.619-0.037-1.174-0.111-1.666s-0.192-0.908-0.353-1.25c-0.161-0.341-0.367-0.603-0.618-0.785
	C143.303,7.063,142.997,6.972,142.634,6.972z"/>
<path fill="#41494E" d="M164.91,6.996h-0.507c-0.174,0-0.328,0.02-0.465,0.059c-0.135,0.04-0.267,0.121-0.395,0.244
	c-0.129,0.123-0.253,0.301-0.376,0.535c-0.123,0.234-0.259,0.545-0.409,0.934l-3.671,9.995h-3.336l-4.153-10.602
	c-0.091-0.23-0.198-0.42-0.316-0.57c-0.119-0.151-0.259-0.271-0.42-0.358c-0.161-0.086-0.346-0.148-0.556-0.184
	c-0.21-0.036-0.456-0.054-0.736-0.054V5.699h7.85v1.297h-1.064c-0.254,0-0.46,0.065-0.611,0.196
	c-0.154,0.131-0.229,0.324-0.229,0.578c0,0.197,0.025,0.392,0.079,0.583c0.054,0.19,0.106,0.353,0.156,0.488l1.694,4.617
	c0.204,0.516,0.385,1.035,0.537,1.559c0.154,0.523,0.271,0.991,0.354,1.403c0.041-0.19,0.097-0.413,0.172-0.666
	c0.073-0.253,0.147-0.502,0.222-0.743c0.075-0.242,0.142-0.462,0.204-0.661c0.063-0.198,0.104-0.337,0.129-0.417l1.719-4.89
	c0.083-0.222,0.152-0.447,0.204-0.672c0.055-0.226,0.081-0.451,0.081-0.673c0-0.269-0.091-0.454-0.279-0.553
	c-0.184-0.1-0.421-0.148-0.71-0.148h-0.727V5.699h5.562V6.996z"/>
<path fill="#41494E" d="M172.659,19c-1.072,0-2.016-0.151-2.837-0.452c-0.821-0.302-1.507-0.737-2.058-1.309
	c-0.55-0.571-0.969-1.271-1.249-2.1c-0.279-0.829-0.42-1.775-0.42-2.837c0-1.143,0.141-2.146,0.42-3.011
	c0.28-0.865,0.69-1.586,1.224-2.165c0.534-0.579,1.193-1.013,1.973-1.303c0.777-0.29,1.667-0.435,2.663-0.435
	c0.915,0,1.739,0.125,2.471,0.375c0.734,0.25,1.355,0.62,1.867,1.112c0.512,0.493,0.902,1.103,1.174,1.833
	c0.272,0.73,0.41,1.579,0.41,2.546v1.249h-8.294c0.023,0.817,0.117,1.519,0.276,2.106c0.16,0.587,0.384,1.071,0.667,1.452
	c0.285,0.38,0.633,0.662,1.04,0.845c0.407,0.182,0.875,0.273,1.401,0.273c0.436,0,0.841-0.049,1.214-0.148
	c0.37-0.099,0.707-0.239,1.006-0.417c0.299-0.179,0.566-0.389,0.79-0.631c0.229-0.242,0.416-0.501,0.563-0.779
	c0.453,0.238,0.679,0.635,0.679,1.19c0,0.349-0.099,0.68-0.295,0.993c-0.199,0.313-0.503,0.589-0.915,0.828
	c-0.412,0.238-0.931,0.428-1.553,0.571C174.256,18.929,173.516,19,172.659,19z M172.424,6.972c-0.708,0-1.27,0.337-1.688,1.011
	c-0.415,0.675-0.644,1.662-0.686,2.963h4.376c0-0.619-0.038-1.174-0.112-1.666c-0.073-0.492-0.191-0.908-0.352-1.25
	c-0.16-0.341-0.368-0.603-0.618-0.785C173.094,7.063,172.786,6.972,172.424,6.972z"/>
<path fill="#41494E" d="M180.089,17.466c0.189,0,0.388-0.018,0.598-0.054c0.211-0.035,0.403-0.109,0.582-0.22
	c0.177-0.111,0.325-0.27,0.445-0.477c0.119-0.206,0.179-0.483,0.179-0.832V3.022c0-0.325-0.06-0.585-0.179-0.78
	c-0.12-0.194-0.27-0.344-0.453-0.452c-0.179-0.107-0.376-0.177-0.586-0.208c-0.209-0.031-0.405-0.047-0.586-0.047h-0.298V0.25h5.948
	v15.634c0,0.349,0.058,0.626,0.179,0.832c0.118,0.207,0.266,0.365,0.445,0.477c0.177,0.111,0.372,0.185,0.586,0.22
	c0.214,0.036,0.413,0.054,0.595,0.054h0.295v1.297h-8.047v-1.297H180.089z"/>
<path fill="#41494E" d="M202.596,12.183c0,2.293-0.557,4.001-1.673,5.128c-1.117,1.126-2.758,1.689-4.926,1.689
	c-1.013,0-1.924-0.141-2.731-0.422c-0.808-0.282-1.495-0.704-2.06-1.268c-0.563-0.563-0.996-1.272-1.298-2.13
	c-0.299-0.856-0.451-1.855-0.451-2.998c0-2.292,0.56-3.998,1.676-5.116c1.117-1.118,2.762-1.678,4.937-1.678
	c1.014,0,1.925,0.14,2.728,0.417c0.804,0.278,1.485,0.699,2.052,1.262c0.562,0.563,0.995,1.271,1.298,2.124
	C202.447,10.043,202.596,11.041,202.596,12.183z M193.389,12.183c0,0.865,0.047,1.626,0.142,2.284
	c0.095,0.659,0.249,1.21,0.456,1.654c0.212,0.444,0.487,0.779,0.824,1.005c0.336,0.227,0.75,0.339,1.234,0.339
	c0.487,0,0.898-0.113,1.231-0.339c0.334-0.226,0.607-0.561,0.817-1.005c0.21-0.444,0.36-0.996,0.451-1.654
	c0.089-0.658,0.135-1.419,0.135-2.284c0-0.873-0.047-1.636-0.139-2.29c-0.096-0.655-0.25-1.2-0.46-1.636
	c-0.209-0.437-0.485-0.764-0.82-0.982c-0.339-0.218-0.751-0.327-1.237-0.327c-0.487,0-0.901,0.109-1.237,0.327
	c-0.338,0.218-0.609,0.545-0.815,0.982c-0.208,0.436-0.356,0.981-0.446,1.636C193.434,10.547,193.389,11.311,193.389,12.183z"/>
<path fill="#41494E" d="M204.413,23.319c0.191,0,0.391-0.018,0.599-0.053c0.212-0.036,0.407-0.109,0.582-0.221
	c0.178-0.111,0.325-0.27,0.445-0.476c0.12-0.206,0.18-0.484,0.18-0.833V8.697c0-0.372-0.043-0.67-0.13-0.892
	c-0.087-0.222-0.208-0.393-0.357-0.511c-0.154-0.119-0.334-0.199-0.545-0.238c-0.211-0.039-0.436-0.059-0.673-0.059h-0.175V5.699
	h4.958l0.457,1.904h0.11c0.183-0.317,0.395-0.606,0.638-0.869c0.243-0.262,0.522-0.488,0.84-0.678
	c0.318-0.19,0.673-0.337,1.071-0.439c0.395-0.104,0.836-0.155,1.322-0.155c0.84,0,1.584,0.132,2.23,0.398
	c0.647,0.266,1.189,0.679,1.625,1.237c0.438,0.56,0.77,1.267,0.997,2.124c0.226,0.856,0.34,1.875,0.34,3.058
	c0,1.173-0.113,2.187-0.335,3.039c-0.222,0.853-0.551,1.557-0.983,2.112c-0.433,0.556-0.964,0.966-1.594,1.231
	c-0.63,0.265-1.358,0.398-2.181,0.398c-0.965,0-1.748-0.176-2.349-0.529c-0.604-0.353-1.086-0.827-1.447-1.422h-0.175
	c0.033,0.373,0.066,0.738,0.1,1.094c0.025,0.302,0.047,0.623,0.068,0.964c0.019,0.341,0.032,0.639,0.032,0.892v1.677
	c0,0.349,0.057,0.627,0.178,0.833c0.121,0.206,0.269,0.365,0.445,0.476c0.177,0.111,0.37,0.185,0.582,0.221
	c0.208,0.035,0.403,0.053,0.586,0.053h0.557v1.297h-8.295v-1.297H204.413z M212.645,17.252c0.85,0,1.457-0.411,1.825-1.231
	c0.367-0.821,0.549-2.061,0.549-3.718c0-1.619-0.183-2.86-0.549-3.725c-0.368-0.865-0.966-1.296-1.799-1.296
	c-0.503,0-0.923,0.108-1.26,0.327c-0.336,0.218-0.606,0.54-0.802,0.963c-0.199,0.424-0.339,0.948-0.422,1.571
	c-0.081,0.623-0.122,1.334-0.122,2.136c0,0.84,0.042,1.572,0.122,2.195c0.083,0.623,0.223,1.14,0.422,1.552
	c0.196,0.413,0.461,0.72,0.79,0.922C211.727,17.15,212.142,17.252,212.645,17.252z"/>
<path fill="#41494E" d="M230.717,18.763v-8.02c0-0.523-0.032-0.989-0.104-1.397c-0.07-0.408-0.188-0.751-0.346-1.029
	c-0.161-0.277-0.371-0.49-0.631-0.637s-0.573-0.22-0.947-0.22c-0.419,0-0.77,0.103-1.048,0.31c-0.282,0.206-0.506,0.482-0.674,0.826
	c-0.17,0.346-0.292,0.746-0.367,1.202c-0.075,0.457-0.112,0.934-0.112,1.434v4.652c0,0.34,0.045,0.615,0.132,0.82
	c0.086,0.207,0.207,0.367,0.364,0.482s0.349,0.191,0.575,0.226c0.228,0.036,0.48,0.054,0.762,0.054h0.071v1.297h-7.773v-1.297h0.049
	c0.287,0,0.553-0.018,0.79-0.054c0.243-0.035,0.45-0.113,0.626-0.232c0.177-0.119,0.314-0.29,0.414-0.512
	c0.1-0.222,0.149-0.516,0.149-0.88V8.507c0-0.341-0.046-0.615-0.131-0.821c-0.086-0.206-0.21-0.367-0.372-0.482
	c-0.16-0.115-0.353-0.19-0.574-0.227c-0.222-0.035-0.474-0.053-0.754-0.053h-0.073V5.699h5.313l0.334,1.738h0.123
	c0.258-0.46,0.527-0.826,0.811-1.095c0.285-0.27,0.586-0.476,0.909-0.619c0.321-0.142,0.663-0.233,1.02-0.273
	c0.358-0.04,0.736-0.06,1.132-0.06c0.931,0,1.726,0.161,2.386,0.482c0.657,0.321,1.139,0.843,1.446,1.565h0.222
	c0.257-0.46,0.533-0.826,0.835-1.095c0.3-0.27,0.622-0.476,0.964-0.619c0.342-0.142,0.699-0.233,1.076-0.273
	c0.375-0.04,0.758-0.06,1.154-0.06c0.651,0,1.237,0.092,1.757,0.274c0.518,0.182,0.956,0.464,1.314,0.845
	c0.359,0.38,0.635,0.866,0.822,1.457c0.191,0.591,0.285,1.299,0.285,2.124v5.651c0,0.381,0.036,0.685,0.106,0.911
	c0.068,0.226,0.174,0.398,0.314,0.518c0.139,0.119,0.317,0.198,0.532,0.238c0.213,0.04,0.461,0.06,0.741,0.06h0.074v1.297h-5.624
	v-8.02c0-1.047-0.152-1.855-0.454-2.427c-0.299-0.571-0.819-0.856-1.563-0.856c-0.396,0-0.731,0.093-1.014,0.28
	c-0.278,0.186-0.508,0.438-0.688,0.755c-0.173,0.318-0.304,0.688-0.386,1.113c-0.083,0.424-0.125,0.871-0.125,1.339v4.794
	c0,0.381,0.034,0.685,0.104,0.911c0.071,0.226,0.174,0.398,0.315,0.518c0.142,0.119,0.316,0.198,0.531,0.238s0.466,0.06,0.753,0.06
	h0.076v1.297H230.717z"/>
<path fill="#41494E" d="M252.82,19c-1.071,0-2.019-0.151-2.839-0.452c-0.818-0.302-1.504-0.737-2.057-1.309
	c-0.554-0.571-0.97-1.271-1.247-2.1c-0.283-0.829-0.421-1.775-0.421-2.837c0-1.143,0.138-2.146,0.421-3.011
	c0.277-0.865,0.686-1.586,1.222-2.165s1.193-1.013,1.972-1.303c0.78-0.29,1.666-0.435,2.663-0.435c0.915,0,1.739,0.125,2.474,0.375
	c0.732,0.25,1.356,0.62,1.868,1.112c0.509,0.493,0.9,1.103,1.173,1.833c0.271,0.73,0.406,1.579,0.406,2.546v1.249h-8.294
	c0.025,0.817,0.118,1.519,0.278,2.106c0.163,0.587,0.383,1.071,0.669,1.452c0.283,0.38,0.629,0.662,1.038,0.845
	c0.406,0.182,0.875,0.273,1.402,0.273c0.437,0,0.841-0.049,1.211-0.148c0.372-0.099,0.706-0.239,1.007-0.417
	c0.303-0.179,0.565-0.389,0.793-0.631c0.227-0.242,0.413-0.501,0.562-0.779c0.453,0.238,0.681,0.635,0.681,1.19
	c0,0.349-0.099,0.68-0.299,0.993c-0.195,0.313-0.501,0.589-0.914,0.828c-0.412,0.238-0.928,0.428-1.551,0.571
	C254.416,18.929,253.677,19,252.82,19z M252.585,6.972c-0.709,0-1.271,0.337-1.688,1.011c-0.415,0.675-0.645,1.662-0.688,2.963
	h4.378c0-0.619-0.036-1.174-0.111-1.666s-0.192-0.908-0.354-1.25c-0.159-0.341-0.365-0.603-0.617-0.785
	C253.255,7.063,252.947,6.972,252.585,6.972z"/>
<path fill="#41494E" d="M270.126,18.763v-8.02c0-0.523-0.034-0.989-0.105-1.397c-0.07-0.408-0.187-0.751-0.346-1.029
	c-0.161-0.277-0.374-0.49-0.631-0.637c-0.26-0.147-0.573-0.22-0.946-0.22c-0.42,0-0.771,0.103-1.049,0.31
	c-0.283,0.206-0.508,0.482-0.674,0.826c-0.17,0.346-0.291,0.746-0.366,1.202c-0.074,0.457-0.112,0.934-0.112,1.434v4.652
	c0,0.34,0.046,0.615,0.131,0.82c0.085,0.207,0.208,0.367,0.363,0.482c0.159,0.115,0.35,0.191,0.577,0.226
	c0.227,0.036,0.48,0.054,0.759,0.054h0.075v1.297h-7.774v-1.297h0.049c0.287,0,0.552-0.018,0.79-0.054
	c0.239-0.035,0.447-0.113,0.624-0.232c0.179-0.119,0.315-0.29,0.416-0.512c0.1-0.222,0.146-0.516,0.146-0.88v-7.21
	c0-0.341-0.043-0.615-0.131-0.821c-0.085-0.206-0.208-0.367-0.369-0.481c-0.16-0.115-0.352-0.19-0.574-0.226
	c-0.225-0.036-0.474-0.054-0.754-0.054h-0.073V5.699h5.313l0.334,1.738h0.122c0.257-0.46,0.527-0.826,0.812-1.095
	c0.283-0.27,0.586-0.476,0.908-0.619c0.322-0.142,0.661-0.233,1.021-0.273c0.356-0.04,0.735-0.06,1.13-0.06
	c0.65,0,1.234,0.092,1.755,0.274c0.519,0.182,0.958,0.464,1.317,0.845c0.357,0.38,0.631,0.866,0.821,1.457
	c0.189,0.591,0.285,1.299,0.285,2.124v5.651c0,0.381,0.033,0.685,0.103,0.911c0.071,0.226,0.176,0.398,0.316,0.518
	c0.14,0.119,0.316,0.198,0.533,0.238c0.212,0.04,0.465,0.06,0.751,0.06h0.076v1.297H270.126z"/>
<path fill="#41494E" d="M284.352,17.038c0.332,0,0.646-0.022,0.947-0.066c0.299-0.044,0.582-0.097,0.846-0.16v1.582
	c-0.131,0.064-0.31,0.131-0.537,0.202c-0.225,0.071-0.49,0.137-0.79,0.197c-0.302,0.06-0.641,0.109-1.021,0.149
	C283.418,18.98,283.004,19,282.56,19c-0.567,0-1.083-0.065-1.544-0.196c-0.462-0.131-0.853-0.349-1.175-0.655
	c-0.32-0.305-0.569-0.702-0.74-1.189c-0.175-0.488-0.262-1.089-0.262-1.803V7.364h-1.902V6.115c0.543,0,1.029-0.104,1.458-0.31
	c0.428-0.206,0.77-0.444,1.026-0.713c0.52-0.524,0.905-1.329,1.162-2.416h2.101v3.022h3.239v1.666h-3.239v7.543
	c0,0.738,0.13,1.277,0.39,1.618C283.333,16.867,283.761,17.038,284.352,17.038z"/>
<path fill="#41494E" d="M292.5,19c-0.915,0-1.697-0.071-2.345-0.214c-0.646-0.143-1.172-0.342-1.58-0.595
	c-0.409-0.255-0.706-0.555-0.89-0.905c-0.187-0.349-0.278-0.726-0.278-1.13c0-0.397,0.078-0.715,0.24-0.957
	c0.161-0.242,0.362-0.431,0.605-0.565c0.243-0.134,0.502-0.224,0.771-0.268c0.274-0.043,0.52-0.065,0.744-0.065
	c0,0.507,0.064,0.963,0.195,1.368c0.133,0.404,0.318,0.747,0.557,1.029c0.239,0.282,0.526,0.498,0.86,0.649
	c0.333,0.15,0.707,0.226,1.119,0.226c0.437,0,0.813-0.043,1.13-0.131c0.316-0.087,0.577-0.208,0.778-0.363
	c0.203-0.155,0.353-0.333,0.453-0.535c0.098-0.203,0.146-0.415,0.146-0.637c0-0.27-0.05-0.509-0.153-0.72
	c-0.103-0.209-0.275-0.408-0.512-0.595c-0.241-0.186-0.56-0.369-0.96-0.547c-0.399-0.179-0.895-0.367-1.488-0.565
	c-0.684-0.23-1.29-0.474-1.812-0.732c-0.523-0.257-0.964-0.551-1.324-0.88c-0.356-0.33-0.628-0.706-0.814-1.13
	c-0.186-0.424-0.279-0.911-0.279-1.458c0-0.651,0.131-1.218,0.392-1.701c0.259-0.484,0.628-0.886,1.105-1.208
	c0.478-0.321,1.052-0.562,1.718-0.72c0.669-0.158,1.409-0.238,2.227-0.238c0.8,0,1.477,0.066,2.038,0.197s1.019,0.303,1.372,0.518
	c0.354,0.214,0.616,0.456,0.78,0.726c0.164,0.27,0.246,0.543,0.246,0.82c0,0.548-0.198,0.964-0.598,1.25
	c-0.401,0.285-1.063,0.428-1.985,0.428c0-0.809-0.189-1.438-0.563-1.886c-0.374-0.448-0.928-0.671-1.663-0.671
	c-0.271,0-0.532,0.031-0.783,0.095c-0.252,0.063-0.47,0.159-0.655,0.286c-0.187,0.126-0.335,0.283-0.444,0.47
	c-0.112,0.187-0.167,0.406-0.167,0.661c0,0.261,0.051,0.496,0.153,0.702c0.103,0.207,0.283,0.403,0.545,0.589
	c0.259,0.187,0.611,0.375,1.056,0.565c0.445,0.191,1.016,0.401,1.706,0.631c0.561,0.19,1.078,0.406,1.55,0.648
	c0.475,0.242,0.884,0.52,1.227,0.833c0.341,0.313,0.607,0.67,0.796,1.071c0.189,0.4,0.285,0.858,0.285,1.374
	c0,0.674-0.12,1.277-0.365,1.809c-0.241,0.532-0.599,0.979-1.069,1.344c-0.47,0.366-1.048,0.645-1.729,0.84
	C294.15,18.903,293.373,19,292.5,19z"/>
<path fill="#8F9699" d="M5.042,37.968c-0.445,0-0.803,0.061-1.077,0.179c-0.275,0.121-0.489,0.29-0.645,0.508
	c-0.153,0.218-0.257,0.476-0.309,0.774c-0.052,0.299-0.079,0.622-0.079,0.971c-0.638,0-1.126-0.105-1.461-0.316
	c-0.333-0.21-0.5-0.574-0.5-1.091c0-0.385,0.107-0.713,0.327-0.981c0.218-0.269,0.517-0.489,0.896-0.659
	c0.38-0.171,0.823-0.297,1.326-0.377s1.042-0.12,1.612-0.12c0.707,0,1.324,0.067,1.851,0.202c0.526,0.135,0.966,0.354,1.32,0.66
	c0.354,0.305,0.618,0.704,0.795,1.193c0.177,0.492,0.265,1.092,0.265,1.805v5.792c0,0.312,0.027,0.571,0.079,0.774
	c0.053,0.204,0.135,0.367,0.249,0.491c0.112,0.125,0.261,0.211,0.445,0.262c0.185,0.051,0.405,0.077,0.66,0.077h0.068v0.938H7.737
	l-0.361-1.919H7.185c-0.241,0.313-0.474,0.6-0.7,0.861c-0.226,0.262-0.474,0.488-0.745,0.677c-0.27,0.189-0.577,0.336-0.918,0.442
	c-0.342,0.106-0.755,0.158-1.235,0.158c-0.512,0-0.987-0.07-1.427-0.213c-0.44-0.141-0.82-0.359-1.14-0.654
	c-0.319-0.294-0.568-0.665-0.75-1.113C0.09,46.84,0,46.311,0,45.7c0-1.185,0.436-2.065,1.307-2.639
	c0.873-0.574,2.193-0.888,3.96-0.938l1.918-0.065v-1.342c0-0.399-0.023-0.768-0.069-1.107c-0.044-0.337-0.142-0.629-0.293-0.873
	c-0.151-0.243-0.367-0.433-0.647-0.568C5.892,38.035,5.515,37.968,5.042,37.968z M2.244,45.809c0,0.698,0.152,1.219,0.458,1.564
	c0.303,0.346,0.776,0.519,1.415,0.519c0.467,0,0.889-0.073,1.27-0.218c0.379-0.146,0.702-0.353,0.969-0.622
	c0.268-0.268,0.472-0.596,0.614-0.98c0.143-0.386,0.215-0.814,0.215-1.288v-1.81l-1.478,0.066c-0.654,0.028-1.201,0.106-1.642,0.233
	C3.626,43.4,3.271,43.578,3,43.808c-0.271,0.228-0.465,0.511-0.582,0.844C2.302,44.987,2.244,45.373,2.244,45.809z"/>
<path fill="#8F9699" d="M29.541,46.594c0,0.327,0.051,0.591,0.151,0.791c0.103,0.2,0.239,0.354,0.413,0.463
	c0.173,0.109,0.375,0.18,0.603,0.213c0.23,0.033,0.473,0.049,0.729,0.049h0.191v0.938h-3.914l-0.248-2.007h-0.09
	c-0.173,0.343-0.37,0.649-0.593,0.922c-0.222,0.273-0.474,0.505-0.761,0.697c-0.286,0.194-0.608,0.342-0.969,0.448
	c-0.361,0.106-0.768,0.158-1.219,0.158c-0.76,0-1.432-0.122-2.019-0.365c-0.586-0.244-1.079-0.618-1.477-1.123
	c-0.399-0.505-0.7-1.147-0.903-1.925c-0.202-0.779-0.304-1.702-0.304-2.77c0-1.076,0.102-2.008,0.304-2.792
	c0.204-0.785,0.504-1.433,0.903-1.941c0.398-0.508,0.891-0.885,1.477-1.128c0.587-0.244,1.259-0.366,2.019-0.366
	c0.444,0,0.846,0.047,1.207,0.142c0.361,0.094,0.686,0.229,0.975,0.404c0.291,0.174,0.548,0.381,0.773,0.622
	c0.226,0.24,0.422,0.505,0.587,0.795h0.136c-0.023-0.364-0.045-0.704-0.067-1.024c-0.016-0.276-0.031-0.55-0.046-0.824
	c-0.015-0.272-0.022-0.475-0.022-0.605v-1.832c0-0.328-0.052-0.591-0.151-0.791c-0.103-0.2-0.239-0.354-0.413-0.463
	c-0.173-0.109-0.374-0.179-0.603-0.213c-0.23-0.032-0.473-0.049-0.729-0.049h-0.191v-0.938h4.252V46.594z M24.228,47.837
	c0.602,0,1.103-0.096,1.506-0.29c0.402-0.192,0.726-0.484,0.97-0.877c0.244-0.393,0.417-0.887,0.52-1.483
	c0.1-0.596,0.151-1.298,0.151-2.104c0-0.779-0.052-1.466-0.151-2.062c-0.103-0.596-0.275-1.096-0.52-1.5
	c-0.245-0.402-0.57-0.71-0.977-0.921c-0.405-0.211-0.914-0.316-1.522-0.316c-0.503,0-0.936,0.104-1.297,0.316
	c-0.36,0.211-0.655,0.52-0.885,0.927c-0.229,0.407-0.396,0.91-0.502,1.511c-0.104,0.599-0.158,1.288-0.158,2.066
	c0,1.585,0.222,2.77,0.667,3.556C22.473,47.445,23.206,47.837,24.228,47.837z"/>
<path fill="#8F9699" d="M32.868,48.11c0.256,0,0.498-0.017,0.726-0.049c0.23-0.033,0.432-0.099,0.604-0.202
	c0.173-0.102,0.311-0.252,0.411-0.452c0.104-0.201,0.153-0.464,0.153-0.791v-7.078c0-0.328-0.049-0.591-0.153-0.791
	c-0.101-0.2-0.238-0.354-0.411-0.463c-0.173-0.11-0.375-0.182-0.604-0.218c-0.229-0.037-0.47-0.055-0.726-0.055H32.8v-0.938h4.128
	v9.434c0,0.349,0.05,0.628,0.153,0.84c0.101,0.211,0.236,0.373,0.407,0.485c0.167,0.113,0.37,0.187,0.603,0.224
	c0.233,0.036,0.477,0.055,0.732,0.055h0.305v0.938h-6.564V48.11H32.868z M34.436,33.452c0-0.262,0.034-0.48,0.102-0.655
	c0.067-0.174,0.162-0.316,0.282-0.425c0.121-0.109,0.26-0.185,0.418-0.229c0.157-0.043,0.331-0.066,0.519-0.066
	c0.18,0,0.35,0.022,0.508,0.066c0.157,0.044,0.295,0.12,0.412,0.229c0.116,0.109,0.21,0.25,0.281,0.425
	c0.072,0.175,0.108,0.393,0.108,0.655c0,0.262-0.036,0.48-0.108,0.654c-0.071,0.175-0.165,0.316-0.281,0.426
	c-0.117,0.109-0.255,0.187-0.412,0.233c-0.158,0.047-0.328,0.071-0.508,0.071c-0.188,0-0.361-0.024-0.519-0.071
	c-0.158-0.046-0.298-0.125-0.418-0.233c-0.12-0.109-0.214-0.251-0.282-0.426C34.47,33.932,34.436,33.714,34.436,33.452z"/>
<path fill="#8F9699" d="M51.569,37.542c0,0.16-0.023,0.312-0.073,0.453c-0.048,0.143-0.122,0.265-0.22,0.371
	c-0.096,0.105-0.224,0.189-0.378,0.252c-0.153,0.061-0.335,0.092-0.546,0.092c0-0.087-0.011-0.175-0.034-0.262
	c-0.022-0.087-0.062-0.169-0.12-0.245c-0.055-0.078-0.133-0.139-0.231-0.187c-0.096-0.046-0.225-0.07-0.383-0.07
	c-0.195,0-0.372,0.022-0.529,0.066c-0.158,0.043-0.312,0.113-0.463,0.207c0.264,0.312,0.479,0.682,0.649,1.106
	c0.168,0.427,0.254,0.959,0.254,1.598c0,0.552-0.086,1.063-0.26,1.532c-0.173,0.468-0.43,0.874-0.773,1.217
	c-0.341,0.341-0.774,0.608-1.296,0.801c-0.523,0.193-1.134,0.29-1.833,0.29c-0.091,0-0.192-0.002-0.305-0.006
	c-0.113-0.003-0.226-0.007-0.338-0.01c-0.113-0.004-0.219-0.012-0.315-0.021c-0.098-0.012-0.176-0.021-0.237-0.028
	c-0.151,0.073-0.294,0.153-0.429,0.24c-0.135,0.087-0.254,0.186-0.354,0.294c-0.103,0.109-0.183,0.233-0.244,0.371
	c-0.06,0.138-0.09,0.291-0.09,0.458c0,0.181,0.036,0.328,0.108,0.437c0.07,0.108,0.17,0.194,0.298,0.256
	c0.127,0.062,0.279,0.101,0.457,0.12c0.177,0.018,0.367,0.027,0.569,0.027h2.617c0.692,0,1.279,0.083,1.76,0.251
	c0.48,0.167,0.874,0.397,1.179,0.693c0.304,0.293,0.526,0.646,0.665,1.057c0.139,0.411,0.208,0.856,0.208,1.336
	c0,0.64-0.122,1.218-0.367,1.734c-0.244,0.517-0.619,0.955-1.122,1.314c-0.504,0.361-1.141,0.638-1.911,0.834
	c-0.771,0.196-1.68,0.294-2.725,0.294c-1.608,0-2.813-0.287-3.609-0.862c-0.797-0.574-1.196-1.374-1.196-2.399
	c0-0.437,0.079-0.818,0.237-1.145c0.157-0.328,0.37-0.607,0.638-0.84c0.266-0.233,0.572-0.421,0.918-0.567
	c0.345-0.146,0.711-0.251,1.094-0.316c-0.158-0.065-0.312-0.153-0.462-0.262c-0.15-0.109-0.288-0.24-0.407-0.393
	c-0.121-0.152-0.218-0.327-0.293-0.523c-0.074-0.197-0.113-0.415-0.113-0.655c0-0.443,0.12-0.827,0.361-1.151
	c0.24-0.323,0.624-0.637,1.15-0.943c-0.331-0.131-0.625-0.31-0.886-0.541c-0.259-0.228-0.477-0.49-0.654-0.785
	c-0.176-0.293-0.312-0.616-0.406-0.965c-0.094-0.349-0.141-0.708-0.141-1.08c0-0.647,0.09-1.226,0.27-1.734
	c0.181-0.508,0.451-0.942,0.813-1.298c0.36-0.355,0.812-0.628,1.353-0.818c0.542-0.189,1.177-0.283,1.906-0.283
	c0.277,0,0.553,0.02,0.823,0.061c0.271,0.04,0.521,0.094,0.749,0.162c0.23,0.07,0.438,0.148,0.622,0.235s0.333,0.179,0.445,0.272
	c0.113-0.116,0.244-0.246,0.395-0.386c0.151-0.143,0.32-0.274,0.508-0.393c0.188-0.121,0.393-0.221,0.615-0.301
	c0.222-0.081,0.46-0.12,0.715-0.12c0.233,0,0.435,0.03,0.603,0.093c0.17,0.062,0.31,0.145,0.423,0.25
	c0.112,0.106,0.198,0.229,0.254,0.371C51.542,37.243,51.569,37.39,51.569,37.542z M41.824,51.011c0,0.327,0.045,0.633,0.135,0.916
	c0.09,0.283,0.249,0.528,0.474,0.73c0.226,0.204,0.53,0.364,0.914,0.48c0.383,0.116,0.869,0.174,1.455,0.174
	c0.828,0,1.509-0.067,2.048-0.202c0.537-0.134,0.965-0.322,1.279-0.561c0.316-0.24,0.538-0.525,0.667-0.857
	c0.128-0.33,0.191-0.691,0.191-1.084c0-0.342-0.051-0.623-0.152-0.844c-0.102-0.222-0.251-0.397-0.451-0.524
	c-0.199-0.128-0.446-0.217-0.739-0.267c-0.293-0.051-0.631-0.077-1.015-0.077h-2.267c-0.323,0-0.638,0.027-0.941,0.083
	c-0.306,0.053-0.577,0.157-0.812,0.31c-0.237,0.152-0.428,0.367-0.57,0.644C41.896,50.208,41.824,50.568,41.824,51.011z
	 M43.166,40.923c0,0.953,0.164,1.651,0.49,2.094c0.329,0.443,0.864,0.666,1.608,0.666c0.376,0,0.693-0.055,0.953-0.164
	c0.259-0.109,0.472-0.276,0.637-0.501s0.284-0.515,0.355-0.866c0.072-0.354,0.107-0.774,0.107-1.261
	c0-1.003-0.158-1.745-0.474-2.225c-0.316-0.48-0.851-0.72-1.602-0.72c-0.744,0-1.276,0.245-1.595,0.737
	C43.326,39.172,43.166,39.92,43.166,40.923z"/>
<path fill="#8F9699" d="M52.686,48.11c0.256,0,0.498-0.017,0.728-0.049c0.229-0.033,0.43-0.099,0.603-0.202
	c0.173-0.102,0.31-0.252,0.413-0.452c0.101-0.201,0.152-0.464,0.152-0.791v-7.078c0-0.328-0.051-0.591-0.152-0.791
	c-0.103-0.2-0.239-0.354-0.413-0.463c-0.172-0.11-0.374-0.182-0.603-0.218c-0.23-0.037-0.472-0.055-0.728-0.055h-0.067v-0.938h4.128
	v9.434c0,0.349,0.051,0.628,0.151,0.84c0.102,0.211,0.238,0.373,0.407,0.485c0.169,0.113,0.371,0.187,0.604,0.224
	c0.233,0.036,0.477,0.055,0.733,0.055h0.304v0.938h-6.564V48.11H52.686z M54.253,33.452c0-0.262,0.035-0.48,0.102-0.655
	c0.067-0.174,0.162-0.316,0.282-0.425c0.121-0.109,0.259-0.185,0.417-0.229c0.158-0.043,0.332-0.066,0.519-0.066
	c0.181,0,0.35,0.022,0.507,0.066c0.158,0.044,0.296,0.12,0.412,0.229c0.117,0.109,0.211,0.25,0.282,0.425
	c0.071,0.175,0.107,0.393,0.107,0.655c0,0.262-0.036,0.48-0.107,0.654c-0.071,0.175-0.165,0.316-0.282,0.426
	c-0.116,0.109-0.254,0.187-0.412,0.233c-0.157,0.047-0.326,0.071-0.507,0.071c-0.187,0-0.361-0.024-0.519-0.071
	c-0.158-0.046-0.297-0.125-0.417-0.233c-0.12-0.109-0.214-0.251-0.282-0.426C54.288,33.932,54.253,33.714,54.253,33.452z"/>
<path fill="#8F9699" d="M65.364,48.088c0.279,0,0.534-0.015,0.767-0.043s0.47-0.066,0.711-0.109v0.982
	c-0.097,0.043-0.226,0.087-0.383,0.13c-0.158,0.043-0.33,0.083-0.514,0.114c-0.184,0.034-0.377,0.059-0.581,0.078
	c-0.203,0.019-0.395,0.027-0.575,0.027c-0.587,0-1.09-0.061-1.512-0.179c-0.42-0.121-0.767-0.315-1.037-0.584
	c-0.271-0.268-0.472-0.625-0.604-1.068c-0.131-0.443-0.198-0.985-0.198-1.625v-7.46h-1.759v-0.895c0.278,0,0.585-0.054,0.918-0.163
	c0.335-0.109,0.631-0.291,0.887-0.545c0.263-0.277,0.476-0.606,0.638-0.987c0.161-0.382,0.303-0.86,0.422-1.434h1.061v2.749h3.023
	v1.276h-3.023v7.525c0,0.764,0.16,1.324,0.479,1.679C64.404,47.91,64.83,48.088,65.364,48.088z"/>
<path fill="#8F9699" d="M73.565,37.968c-0.444,0-0.804,0.061-1.078,0.179c-0.274,0.121-0.489,0.29-0.643,0.508
	c-0.155,0.218-0.258,0.476-0.311,0.774c-0.052,0.299-0.078,0.622-0.078,0.971c-0.639,0-1.127-0.105-1.46-0.316
	c-0.335-0.21-0.503-0.574-0.503-1.091c0-0.385,0.109-0.713,0.327-0.981c0.218-0.269,0.517-0.489,0.897-0.659
	c0.379-0.171,0.821-0.297,1.325-0.377c0.503-0.08,1.042-0.12,1.613-0.12c0.707,0,1.322,0.067,1.85,0.202
	c0.526,0.135,0.966,0.354,1.319,0.66c0.354,0.305,0.618,0.704,0.796,1.193c0.177,0.492,0.264,1.092,0.264,1.805v5.792
	c0,0.312,0.027,0.571,0.08,0.774c0.053,0.204,0.136,0.367,0.248,0.491c0.113,0.125,0.262,0.211,0.446,0.262
	c0.184,0.051,0.404,0.077,0.66,0.077h0.068v0.938h-3.125l-0.362-1.919h-0.191c-0.241,0.313-0.474,0.6-0.699,0.861
	c-0.226,0.262-0.474,0.488-0.744,0.677c-0.271,0.189-0.578,0.336-0.92,0.442s-0.754,0.158-1.234,0.158
	c-0.512,0-0.987-0.07-1.427-0.213c-0.439-0.141-0.82-0.359-1.138-0.654c-0.32-0.294-0.571-0.665-0.751-1.113
	c-0.18-0.446-0.271-0.976-0.271-1.586c0-1.185,0.436-2.065,1.309-2.639c0.872-0.574,2.192-0.888,3.959-0.938l1.917-0.065v-1.342
	c0-0.399-0.022-0.768-0.068-1.107c-0.045-0.337-0.142-0.629-0.293-0.873c-0.15-0.243-0.367-0.433-0.649-0.568
	C74.417,38.035,74.038,37.968,73.565,37.968z M70.768,45.809c0,0.698,0.152,1.219,0.457,1.564C71.53,47.72,72,47.892,72.64,47.892
	c0.466,0,0.888-0.073,1.268-0.218c0.38-0.146,0.703-0.353,0.97-0.622c0.268-0.268,0.473-0.596,0.615-0.98
	c0.143-0.386,0.214-0.814,0.214-1.288v-1.81l-1.478,0.066c-0.654,0.028-1.202,0.106-1.641,0.233
	c-0.442,0.128-0.795,0.306-1.066,0.536c-0.271,0.228-0.465,0.511-0.581,0.844C70.826,44.987,70.768,45.373,70.768,45.809z"/>
<path fill="#8F9699" d="M80.975,48.11c0.264,0,0.509-0.019,0.738-0.055c0.229-0.037,0.429-0.111,0.6-0.224
	c0.167-0.112,0.303-0.274,0.405-0.485s0.152-0.491,0.152-0.84V34.532c0-0.328-0.051-0.591-0.152-0.791
	c-0.102-0.2-0.239-0.354-0.411-0.463c-0.174-0.109-0.374-0.179-0.603-0.213c-0.229-0.032-0.473-0.049-0.729-0.049h-0.293v-0.938
	h4.365v14.429c0,0.349,0.049,0.628,0.147,0.84s0.233,0.373,0.406,0.485c0.172,0.113,0.374,0.187,0.603,0.224
	c0.23,0.036,0.477,0.055,0.739,0.055h0.293v0.938h-6.554V48.11H80.975z"/>
<path fill="#8F9699" d="M99.733,37.968c-0.444,0-0.804,0.061-1.078,0.179c-0.273,0.121-0.488,0.29-0.642,0.508
	c-0.155,0.218-0.258,0.476-0.311,0.774c-0.052,0.299-0.079,0.622-0.079,0.971c-0.638,0-1.125-0.105-1.459-0.316
	c-0.335-0.21-0.502-0.574-0.502-1.091c0-0.385,0.109-0.713,0.327-0.981c0.219-0.269,0.517-0.489,0.897-0.659
	c0.379-0.171,0.821-0.297,1.325-0.377c0.503-0.08,1.042-0.12,1.613-0.12c0.707,0,1.323,0.067,1.85,0.202
	c0.525,0.135,0.965,0.354,1.319,0.66c0.354,0.305,0.618,0.704,0.795,1.193c0.177,0.492,0.265,1.092,0.265,1.805v5.792
	c0,0.312,0.026,0.571,0.079,0.774c0.053,0.204,0.136,0.367,0.248,0.491c0.114,0.125,0.262,0.211,0.446,0.262
	c0.184,0.051,0.405,0.077,0.66,0.077h0.068v0.938h-3.125l-0.362-1.919h-0.191c-0.242,0.313-0.475,0.6-0.7,0.861
	c-0.226,0.262-0.474,0.488-0.744,0.677c-0.271,0.189-0.578,0.336-0.92,0.442s-0.753,0.158-1.234,0.158
	c-0.512,0-0.987-0.07-1.427-0.213c-0.44-0.141-0.82-0.359-1.139-0.654c-0.319-0.294-0.569-0.665-0.75-1.113
	c-0.18-0.446-0.271-0.976-0.271-1.586c0-1.185,0.436-2.065,1.309-2.639c0.873-0.574,2.192-0.888,3.959-0.938l1.917-0.065v-1.342
	c0-0.399-0.023-0.768-0.068-1.107c-0.045-0.337-0.142-0.629-0.293-0.873c-0.15-0.243-0.367-0.433-0.649-0.568
	C100.585,38.035,100.207,37.968,99.733,37.968z M96.935,45.809c0,0.698,0.154,1.219,0.458,1.564
	c0.306,0.346,0.777,0.519,1.416,0.519c0.467,0,0.889-0.073,1.268-0.218c0.381-0.146,0.704-0.353,0.971-0.622
	c0.267-0.268,0.473-0.596,0.615-0.98c0.143-0.386,0.214-0.814,0.214-1.288v-1.81l-1.478,0.066c-0.654,0.028-1.201,0.106-1.64,0.233
	c-0.442,0.128-0.796,0.306-1.067,0.536c-0.271,0.228-0.464,0.511-0.581,0.844C96.995,44.987,96.935,45.373,96.935,45.809z"/>
<path fill="#8F9699" d="M118.694,37.542c0,0.16-0.025,0.312-0.074,0.453c-0.048,0.143-0.122,0.265-0.219,0.371
	c-0.098,0.105-0.224,0.189-0.377,0.252c-0.155,0.061-0.338,0.092-0.548,0.092c0-0.087-0.012-0.175-0.034-0.262
	c-0.022-0.087-0.063-0.169-0.118-0.245c-0.057-0.078-0.134-0.139-0.231-0.187c-0.098-0.046-0.226-0.07-0.384-0.07
	c-0.195,0-0.372,0.022-0.53,0.066c-0.158,0.043-0.312,0.113-0.463,0.207c0.264,0.312,0.48,0.682,0.649,1.106
	c0.169,0.427,0.253,0.959,0.253,1.598c0,0.552-0.086,1.063-0.259,1.532c-0.174,0.468-0.431,0.874-0.772,1.217
	c-0.343,0.341-0.775,0.608-1.298,0.801c-0.523,0.193-1.134,0.29-1.833,0.29c-0.09,0-0.192-0.002-0.305-0.006
	s-0.225-0.007-0.338-0.01c-0.112-0.004-0.219-0.012-0.316-0.021c-0.098-0.012-0.177-0.021-0.237-0.028
	c-0.15,0.073-0.293,0.153-0.428,0.24c-0.136,0.087-0.254,0.186-0.356,0.294c-0.101,0.109-0.182,0.233-0.242,0.371
	c-0.062,0.138-0.09,0.291-0.09,0.458c0,0.181,0.035,0.328,0.106,0.437c0.073,0.108,0.171,0.194,0.3,0.256
	c0.128,0.062,0.28,0.101,0.458,0.12c0.176,0.018,0.366,0.027,0.568,0.027h2.617c0.692,0,1.279,0.083,1.759,0.251
	c0.482,0.167,0.875,0.397,1.179,0.693c0.306,0.293,0.527,0.646,0.667,1.057c0.138,0.411,0.208,0.856,0.208,1.336
	c0,0.64-0.122,1.218-0.366,1.734c-0.245,0.517-0.619,0.955-1.123,1.314c-0.504,0.361-1.142,0.638-1.912,0.834
	s-1.679,0.294-2.724,0.294c-1.609,0-2.812-0.287-3.609-0.862c-0.796-0.574-1.195-1.374-1.195-2.399c0-0.437,0.079-0.818,0.237-1.145
	c0.158-0.328,0.37-0.607,0.637-0.84s0.574-0.421,0.92-0.567c0.345-0.146,0.71-0.251,1.093-0.316
	c-0.158-0.065-0.312-0.153-0.462-0.262c-0.151-0.109-0.286-0.24-0.406-0.393c-0.12-0.152-0.219-0.327-0.294-0.523
	c-0.075-0.197-0.112-0.415-0.112-0.655c0-0.443,0.119-0.827,0.36-1.151c0.241-0.323,0.625-0.637,1.15-0.943
	c-0.332-0.131-0.626-0.31-0.885-0.541c-0.26-0.228-0.478-0.49-0.654-0.785c-0.177-0.293-0.313-0.616-0.405-0.965
	c-0.095-0.349-0.143-0.708-0.143-1.08c0-0.647,0.09-1.226,0.271-1.734c0.181-0.508,0.452-0.942,0.812-1.298
	c0.361-0.355,0.813-0.628,1.354-0.818c0.541-0.189,1.177-0.283,1.906-0.283c0.277,0,0.552,0.02,0.823,0.061
	c0.271,0.04,0.521,0.094,0.75,0.162c0.229,0.07,0.436,0.148,0.62,0.235c0.185,0.087,0.333,0.179,0.446,0.272
	c0.113-0.116,0.244-0.246,0.395-0.386c0.151-0.143,0.32-0.274,0.507-0.393c0.188-0.121,0.393-0.221,0.614-0.301
	c0.222-0.081,0.461-0.12,0.717-0.12c0.233,0,0.433,0.03,0.604,0.093c0.168,0.062,0.31,0.145,0.423,0.25
	c0.112,0.106,0.197,0.229,0.254,0.371C118.665,37.243,118.694,37.39,118.694,37.542z M108.948,51.011
	c0,0.327,0.045,0.633,0.136,0.916s0.248,0.528,0.474,0.73c0.226,0.204,0.531,0.364,0.914,0.48c0.383,0.116,0.868,0.174,1.455,0.174
	c0.827,0,1.509-0.067,2.046-0.202c0.539-0.134,0.965-0.322,1.281-0.561c0.316-0.24,0.537-0.525,0.666-0.857
	c0.129-0.33,0.192-0.691,0.192-1.084c0-0.342-0.05-0.623-0.153-0.844c-0.1-0.222-0.251-0.397-0.451-0.524
	c-0.199-0.128-0.445-0.217-0.738-0.267c-0.293-0.051-0.631-0.077-1.015-0.077h-2.268c-0.322,0-0.636,0.027-0.941,0.083
	c-0.304,0.053-0.575,0.157-0.813,0.31c-0.236,0.152-0.426,0.367-0.569,0.644C109.021,50.208,108.948,50.568,108.948,51.011z
	 M110.291,40.923c0,0.953,0.163,1.651,0.491,2.094c0.326,0.443,0.861,0.666,1.607,0.666c0.376,0,0.693-0.055,0.952-0.164
	c0.262-0.109,0.473-0.276,0.638-0.501c0.166-0.225,0.284-0.515,0.354-0.866c0.072-0.354,0.108-0.774,0.108-1.261
	c0-1.003-0.158-1.745-0.474-2.225c-0.316-0.48-0.851-0.72-1.602-0.72c-0.744,0-1.277,0.245-1.597,0.737
	C110.451,39.172,110.291,39.92,110.291,40.923z"/>
<path fill="#8F9699" d="M125.609,49.266c-0.835,0-1.585-0.135-2.252-0.409c-0.664-0.272-1.228-0.67-1.686-1.194
	c-0.458-0.524-0.81-1.165-1.054-1.925c-0.246-0.76-0.367-1.624-0.367-2.59c0-2.087,0.444-3.658,1.331-4.711
	c0.888-1.054,2.15-1.582,3.791-1.582c0.745,0,1.414,0.113,2.008,0.338c0.593,0.225,1.097,0.561,1.51,1.009
	c0.413,0.446,0.731,1.004,0.954,1.668c0.221,0.667,0.333,1.439,0.333,2.318v1.026h-7.692c0.015,0.813,0.099,1.513,0.254,2.1
	c0.153,0.584,0.375,1.067,0.665,1.444c0.29,0.377,0.645,0.656,1.067,0.834c0.42,0.178,0.906,0.267,1.455,0.267
	c0.398,0,0.769-0.043,1.11-0.131c0.342-0.087,0.654-0.203,0.931-0.348c0.277-0.146,0.525-0.312,0.738-0.496
	c0.215-0.187,0.39-0.381,0.525-0.583c0.106,0.043,0.206,0.135,0.3,0.272c0.093,0.138,0.141,0.301,0.141,0.491
	c0,0.225-0.083,0.467-0.249,0.725c-0.166,0.259-0.418,0.497-0.756,0.714c-0.339,0.218-0.761,0.4-1.27,0.545
	C126.889,49.194,126.292,49.266,125.609,49.266z M125.326,38.054c-0.856,0-1.518,0.336-1.979,1.009
	c-0.464,0.673-0.735,1.656-0.818,2.95h5.313c0-0.588-0.046-1.127-0.136-1.614c-0.091-0.487-0.233-0.905-0.428-1.254
	c-0.197-0.349-0.454-0.618-0.773-0.807C126.186,38.148,125.792,38.054,125.326,38.054z"/>
<path fill="#8F9699" d="M138.196,48.11v0.938h-6.216V48.11h0.192c0.264,0,0.509-0.019,0.739-0.055
	c0.229-0.037,0.43-0.111,0.597-0.224c0.17-0.112,0.306-0.274,0.406-0.485c0.103-0.211,0.153-0.491,0.153-0.84v-6.969
	c0-0.328-0.05-0.591-0.153-0.791c-0.101-0.2-0.238-0.354-0.411-0.463c-0.173-0.11-0.375-0.182-0.605-0.218
	c-0.229-0.037-0.471-0.055-0.727-0.055h-0.067v-0.938h3.733l0.305,1.811h0.113c0.24-0.415,0.494-0.754,0.762-1.02
	c0.266-0.265,0.547-0.473,0.845-0.621c0.297-0.149,0.613-0.252,0.947-0.306c0.335-0.055,0.687-0.082,1.055-0.082
	c0.609,0,1.153,0.085,1.629,0.257c0.479,0.171,0.885,0.433,1.218,0.786c0.336,0.351,0.59,0.805,0.767,1.356
	c0.177,0.553,0.266,1.211,0.266,1.975v5.278c0,0.349,0.042,0.628,0.13,0.84c0.086,0.211,0.208,0.373,0.366,0.485
	c0.158,0.113,0.346,0.187,0.565,0.224c0.218,0.036,0.455,0.055,0.71,0.055h0.078v0.938h-4.026v-7.71c0-0.487-0.045-0.92-0.135-1.298
	s-0.235-0.698-0.434-0.96c-0.2-0.262-0.461-0.46-0.784-0.593c-0.323-0.135-0.718-0.202-1.185-0.202
	c-0.526,0-0.968,0.098-1.325,0.294c-0.357,0.196-0.645,0.461-0.863,0.796c-0.218,0.334-0.374,0.72-0.469,1.156
	c-0.094,0.437-0.14,0.895-0.14,1.375v4.711c0,0.327,0.05,0.59,0.152,0.791c0.101,0.199,0.238,0.35,0.411,0.452
	c0.174,0.103,0.376,0.169,0.605,0.202c0.229,0.033,0.471,0.049,0.726,0.049H138.196z"/>
<path fill="#8F9699" d="M152.781,49.266c-0.767,0-1.474-0.114-2.122-0.344c-0.646-0.228-1.202-0.59-1.669-1.085
	c-0.466-0.495-0.829-1.128-1.089-1.903c-0.257-0.774-0.389-1.71-0.389-2.808c0-1.193,0.131-2.19,0.389-2.995
	c0.261-0.803,0.622-1.449,1.083-1.935c0.464-0.487,1.008-0.833,1.637-1.036c0.627-0.204,1.305-0.306,2.035-0.306
	c0.479,0,0.962,0.046,1.438,0.136c0.476,0.091,0.908,0.231,1.291,0.42c0.385,0.189,0.694,0.427,0.936,0.713
	c0.241,0.288,0.361,0.624,0.361,1.01c0,0.517-0.172,0.88-0.52,1.09c-0.345,0.211-0.861,0.316-1.542,0.316
	c0-0.348-0.032-0.68-0.092-0.992s-0.163-0.587-0.312-0.823c-0.146-0.237-0.345-0.423-0.595-0.558c-0.253-0.133-0.575-0.2-0.966-0.2
	c-0.443,0-0.844,0.08-1.2,0.24c-0.358,0.159-0.665,0.437-0.92,0.828c-0.256,0.393-0.451,0.921-0.586,1.582
	c-0.136,0.662-0.204,1.49-0.204,2.486c0,1.585,0.273,2.766,0.818,3.544c0.544,0.779,1.438,1.167,2.681,1.167
	c0.712,0,1.336-0.146,1.87-0.436c0.535-0.291,0.931-0.666,1.195-1.124c0.115,0.087,0.208,0.203,0.283,0.348
	c0.075,0.146,0.112,0.321,0.112,0.524c0,0.255-0.083,0.509-0.248,0.764c-0.166,0.255-0.412,0.484-0.74,0.687
	c-0.328,0.204-0.733,0.369-1.223,0.495C154.005,49.203,153.436,49.266,152.781,49.266z"/>
<path fill="#8F9699" d="M170.66,37.073v0.938h-0.068c-0.227,0-0.42,0.024-0.582,0.07c-0.161,0.048-0.308,0.137-0.439,0.268
	c-0.133,0.131-0.253,0.31-0.366,0.535c-0.114,0.225-0.237,0.516-0.374,0.873l-3.507,9.379c-0.272,0.72-0.526,1.352-0.767,1.898
	c-0.241,0.545-0.492,1.012-0.756,1.401c-0.262,0.389-0.549,0.71-0.861,0.966c-0.313,0.254-0.669,0.458-1.068,0.611
	c-0.399,0.152-0.856,0.258-1.376,0.316c-0.518,0.059-1.121,0.087-1.805,0.087h-0.203v-1.058c0.783,0,1.455-0.114,2.021-0.339
	c0.563-0.225,1.052-0.534,1.459-0.926c0.411-0.393,0.752-0.857,1.026-1.39c0.274-0.536,0.507-1.115,0.694-1.74l-4.273-9.762
	c-0.109-0.233-0.208-0.423-0.306-0.573c-0.098-0.149-0.208-0.271-0.334-0.365c-0.121-0.094-0.267-0.159-0.428-0.196
	c-0.16-0.037-0.354-0.055-0.581-0.055h-0.069v-0.938h5.551v0.938h-0.067c-0.466,0-0.815,0.086-1.043,0.261
	c-0.228,0.175-0.345,0.447-0.345,0.818c0,0.124,0.014,0.249,0.041,0.376c0.025,0.127,0.071,0.275,0.14,0.441l1.692,3.981
	c0.106,0.255,0.216,0.533,0.335,0.835c0.114,0.301,0.225,0.599,0.324,0.894c0.104,0.294,0.196,0.572,0.279,0.834
	c0.083,0.262,0.137,0.487,0.168,0.676h0.068c0.083-0.327,0.196-0.725,0.341-1.194c0.15-0.468,0.319-0.972,0.516-1.511l1.546-4.351
	c0.067-0.181,0.117-0.356,0.15-0.523c0.036-0.167,0.052-0.312,0.052-0.437c0-0.385-0.127-0.665-0.376-0.84
	c-0.254-0.175-0.637-0.261-1.147-0.261h-0.066v-0.938H170.66z"/>
<path fill="#8F9699" d="M184.42,48.11v0.938h-7.142V48.11h0.306c0.264,0,0.509-0.019,0.74-0.055
	c0.229-0.037,0.429-0.111,0.597-0.224c0.17-0.112,0.306-0.274,0.407-0.485c0.101-0.211,0.152-0.491,0.152-0.84v-8.376h-2.11v-1.058
	h2.11V35.96c0-0.669,0.094-1.258,0.28-1.767c0.187-0.509,0.459-0.938,0.813-1.287c0.355-0.35,0.784-0.613,1.287-0.79
	c0.503-0.179,1.072-0.269,1.703-0.269c0.601,0,1.11,0.039,1.524,0.116c0.412,0.075,0.747,0.183,0.998,0.321
	c0.251,0.138,0.434,0.302,0.546,0.491c0.114,0.189,0.168,0.4,0.168,0.633c0,0.203-0.045,0.383-0.143,0.54
	c-0.09,0.157-0.223,0.288-0.392,0.393c-0.17,0.105-0.368,0.185-0.599,0.24c-0.229,0.053-0.485,0.082-0.761,0.082
	c0-0.226-0.024-0.446-0.073-0.661c-0.049-0.214-0.134-0.405-0.25-0.572s-0.271-0.301-0.467-0.404
	c-0.195-0.102-0.439-0.152-0.734-0.152c-0.331,0-0.606,0.062-0.828,0.186s-0.4,0.307-0.535,0.551
	c-0.138,0.244-0.233,0.544-0.287,0.9c-0.059,0.356-0.087,0.77-0.087,1.244v1.319h3.262v1.058h-3.262v8.376
	c0,0.349,0.052,0.628,0.154,0.84c0.1,0.211,0.237,0.373,0.408,0.485c0.165,0.113,0.37,0.187,0.603,0.224
	c0.233,0.036,0.479,0.055,0.732,0.055H184.42z"/>
<path fill="#8F9699" d="M197.245,43.039c0,2.101-0.462,3.665-1.382,4.689c-0.92,1.026-2.268,1.538-4.043,1.538
	c-0.834,0-1.582-0.126-2.243-0.381c-0.664-0.255-1.227-0.64-1.688-1.157c-0.461-0.516-0.815-1.165-1.06-1.946
	c-0.246-0.782-0.366-1.696-0.366-2.743c0-2.088,0.457-3.64,1.368-4.657c0.917-1.019,2.267-1.527,4.057-1.527
	c0.836,0,1.584,0.126,2.246,0.376c0.661,0.251,1.221,0.633,1.683,1.146c0.465,0.512,0.816,1.157,1.06,1.93
	C197.122,41.082,197.245,41.992,197.245,43.039z M188.694,43.039c0,0.829,0.057,1.559,0.17,2.192
	c0.113,0.633,0.296,1.161,0.545,1.587c0.254,0.424,0.58,0.747,0.982,0.965c0.402,0.218,0.893,0.327,1.473,0.327
	c0.579,0,1.066-0.109,1.466-0.327c0.398-0.218,0.723-0.541,0.97-0.965c0.248-0.427,0.427-0.955,0.537-1.587
	c0.108-0.633,0.164-1.363,0.164-2.192c0-0.829-0.058-1.556-0.17-2.182c-0.112-0.625-0.294-1.146-0.541-1.563
	c-0.249-0.419-0.574-0.733-0.977-0.944c-0.404-0.211-0.894-0.316-1.472-0.316s-1.068,0.105-1.468,0.316
	c-0.398,0.211-0.719,0.525-0.968,0.944c-0.25,0.417-0.429,0.939-0.542,1.563C188.751,41.483,188.694,42.21,188.694,43.039z"/>
<path fill="#8F9699" d="M205.952,49.048h-6.664V48.11h0.067c0.262,0,0.509-0.019,0.74-0.055c0.228-0.037,0.428-0.111,0.598-0.224
	c0.166-0.112,0.303-0.274,0.405-0.485s0.152-0.491,0.152-0.84v-6.969c0-0.328-0.05-0.591-0.152-0.791
	c-0.102-0.2-0.24-0.354-0.413-0.463c-0.17-0.11-0.372-0.182-0.603-0.218c-0.229-0.037-0.47-0.055-0.728-0.055h-0.067v-0.938h3.551
	l0.441,2.214h0.112c0.149-0.334,0.304-0.648,0.464-0.944c0.155-0.293,0.349-0.552,0.58-0.773c0.23-0.222,0.513-0.396,0.851-0.523
	c0.34-0.127,0.765-0.191,1.277-0.191c0.841,0,1.467,0.142,1.876,0.425c0.409,0.284,0.615,0.683,0.615,1.2
	c0,0.233-0.039,0.447-0.119,0.643c-0.08,0.197-0.206,0.366-0.378,0.507c-0.17,0.142-0.395,0.252-0.665,0.327
	c-0.271,0.077-0.603,0.115-0.994,0.115c0-0.617-0.091-1.063-0.271-1.336c-0.181-0.272-0.496-0.408-0.947-0.408
	c-0.285,0-0.542,0.078-0.769,0.233c-0.226,0.157-0.421,0.364-0.589,0.623c-0.171,0.258-0.313,0.555-0.43,0.889
	c-0.116,0.334-0.21,0.679-0.283,1.032c-0.07,0.351-0.12,0.702-0.149,1.051c-0.032,0.349-0.046,0.666-0.046,0.949v3.512
	c0,0.327,0.05,0.59,0.152,0.791c0.102,0.199,0.24,0.35,0.411,0.452c0.174,0.103,0.375,0.169,0.604,0.202
	c0.23,0.033,0.473,0.049,0.729,0.049h0.64V49.048z"/>
<path fill="#8F9699" d="M221.529,48.088c0.278,0,0.537-0.015,0.77-0.043c0.232-0.029,0.47-0.066,0.712-0.109v0.982
	c-0.1,0.043-0.225,0.087-0.383,0.13c-0.158,0.043-0.329,0.083-0.516,0.114c-0.182,0.034-0.375,0.059-0.582,0.078
	c-0.199,0.019-0.392,0.027-0.573,0.027c-0.586,0-1.088-0.061-1.511-0.179c-0.42-0.121-0.767-0.315-1.037-0.584
	c-0.27-0.268-0.473-0.625-0.604-1.068c-0.132-0.443-0.199-0.985-0.199-1.625v-7.46h-1.759v-0.895c0.278,0,0.586-0.054,0.919-0.163
	c0.336-0.109,0.632-0.291,0.885-0.545c0.264-0.277,0.475-0.606,0.636-0.987c0.163-0.382,0.304-0.86,0.427-1.434h1.058v2.749h3.023
	v1.276h-3.023v7.525c0,0.764,0.159,1.324,0.48,1.679C220.571,47.91,220.997,48.088,221.529,48.088z"/>
<path fill="#8F9699" d="M230.173,48.11v0.938h-6.215V48.11h0.181c0.263,0,0.508-0.019,0.737-0.055
	c0.23-0.037,0.43-0.111,0.599-0.224c0.17-0.112,0.304-0.274,0.405-0.485c0.102-0.211,0.153-0.491,0.153-0.84V34.532
	c0-0.328-0.051-0.591-0.153-0.791c-0.102-0.2-0.239-0.354-0.412-0.463c-0.173-0.109-0.374-0.179-0.604-0.213
	c-0.229-0.032-0.47-0.049-0.725-0.049h-0.181v-0.938h4.252v4.909c0,0.203-0.004,0.417-0.01,0.637
	c-0.009,0.222-0.021,0.427-0.036,0.617c-0.014,0.217-0.028,0.432-0.046,0.644h0.112c0.692-1.353,1.826-2.029,3.397-2.029
	c0.652,0,1.234,0.085,1.742,0.257c0.509,0.171,0.936,0.433,1.28,0.786c0.345,0.351,0.608,0.805,0.79,1.356
	c0.179,0.553,0.27,1.211,0.27,1.975v5.278c0,0.349,0.046,0.628,0.135,0.84c0.091,0.211,0.215,0.373,0.373,0.485
	c0.158,0.113,0.347,0.187,0.565,0.224c0.216,0.036,0.455,0.055,0.71,0.055h0.067v0.938h-4.017v-7.71c0-0.487-0.046-0.92-0.135-1.298
	s-0.234-0.698-0.435-0.96c-0.197-0.262-0.462-0.46-0.783-0.593c-0.323-0.135-0.718-0.202-1.184-0.202
	c-0.481,0-0.896,0.085-1.246,0.255c-0.35,0.172-0.64,0.415-0.869,0.731c-0.229,0.316-0.401,0.698-0.512,1.144
	c-0.116,0.448-0.171,0.944-0.171,1.49v4.711c0,0.327,0.05,0.59,0.152,0.791c0.102,0.199,0.239,0.35,0.411,0.452
	c0.174,0.103,0.372,0.169,0.604,0.202c0.229,0.033,0.472,0.049,0.729,0.049H230.173z"/>
<path fill="#8F9699" d="M244.835,49.266c-0.835,0-1.584-0.135-2.248-0.409c-0.668-0.272-1.229-0.67-1.689-1.194
	c-0.455-0.524-0.81-1.165-1.052-1.925c-0.244-0.76-0.367-1.624-0.367-2.59c0-2.087,0.442-3.658,1.328-4.711
	c0.891-1.054,2.153-1.582,3.792-1.582c0.747,0,1.413,0.113,2.008,0.338c0.595,0.225,1.099,0.561,1.509,1.009
	c0.416,0.446,0.734,1.004,0.956,1.668c0.222,0.667,0.334,1.439,0.334,2.318v1.026h-7.696c0.018,0.813,0.102,1.513,0.256,2.1
	c0.154,0.584,0.377,1.067,0.668,1.444c0.287,0.377,0.644,0.656,1.063,0.834c0.423,0.178,0.907,0.267,1.456,0.267
	c0.398,0,0.77-0.043,1.112-0.131s0.65-0.203,0.931-0.348c0.277-0.146,0.522-0.312,0.738-0.496c0.213-0.187,0.391-0.381,0.523-0.583
	c0.106,0.043,0.204,0.135,0.3,0.272c0.094,0.138,0.141,0.301,0.141,0.491c0,0.225-0.083,0.467-0.249,0.725
	c-0.166,0.259-0.416,0.497-0.756,0.714c-0.337,0.218-0.761,0.4-1.269,0.545C246.116,49.194,245.521,49.266,244.835,49.266z
	 M244.553,38.054c-0.857,0-1.515,0.336-1.979,1.009c-0.462,0.673-0.734,1.656-0.818,2.95h5.312c0-0.588-0.043-1.127-0.132-1.614
	c-0.091-0.487-0.235-0.905-0.429-1.254c-0.195-0.349-0.455-0.618-0.773-0.807C245.413,38.148,245.021,38.054,244.553,38.054z"/>
<path fill="#8F9699" d="M262.76,37.968c-0.444,0-0.804,0.061-1.078,0.179c-0.275,0.121-0.486,0.29-0.641,0.508
	s-0.26,0.476-0.312,0.774c-0.054,0.299-0.079,0.622-0.079,0.971c-0.641,0-1.128-0.105-1.459-0.316
	c-0.337-0.21-0.504-0.574-0.504-1.091c0-0.385,0.107-0.713,0.329-0.981c0.216-0.269,0.516-0.489,0.895-0.659
	c0.379-0.171,0.822-0.297,1.325-0.377s1.041-0.12,1.613-0.12c0.707,0,1.324,0.067,1.851,0.202c0.525,0.135,0.966,0.354,1.319,0.66
	c0.351,0.305,0.618,0.704,0.796,1.193c0.175,0.492,0.265,1.092,0.265,1.805v5.792c0,0.312,0.026,0.571,0.076,0.774
	c0.054,0.204,0.137,0.367,0.249,0.491c0.112,0.125,0.262,0.211,0.447,0.262s0.403,0.077,0.659,0.077h0.068v0.938h-3.124
	l-0.361-1.919h-0.193c-0.239,0.313-0.472,0.6-0.697,0.861c-0.226,0.262-0.477,0.488-0.748,0.677
	c-0.27,0.189-0.576,0.336-0.918,0.442s-0.753,0.158-1.235,0.158c-0.509,0-0.985-0.07-1.426-0.213
	c-0.438-0.141-0.819-0.359-1.139-0.654c-0.32-0.294-0.569-0.665-0.751-1.113c-0.181-0.446-0.27-0.976-0.27-1.586
	c0-1.185,0.437-2.065,1.307-2.639c0.873-0.574,2.193-0.888,3.962-0.938l1.915-0.065v-1.342c0-0.399-0.021-0.768-0.064-1.107
	c-0.046-0.337-0.146-0.629-0.295-0.873c-0.15-0.243-0.367-0.433-0.649-0.568C263.61,38.035,263.232,37.968,262.76,37.968z
	 M259.964,45.809c0,0.698,0.15,1.219,0.453,1.564c0.309,0.346,0.778,0.519,1.416,0.519c0.468,0,0.892-0.073,1.27-0.218
	s0.703-0.353,0.97-0.622c0.266-0.268,0.474-0.596,0.615-0.98c0.145-0.386,0.214-0.814,0.214-1.288v-1.81l-1.478,0.066
	c-0.653,0.028-1.202,0.106-1.639,0.233c-0.44,0.128-0.799,0.306-1.068,0.536c-0.271,0.228-0.462,0.511-0.58,0.844
	C260.021,44.987,259.964,45.373,259.964,45.809z"/>
<path fill="#8F9699" d="M277.005,49.048h-6.664V48.11h0.067c0.261,0,0.507-0.019,0.737-0.055c0.23-0.037,0.431-0.111,0.6-0.224
	c0.167-0.112,0.304-0.274,0.405-0.485s0.153-0.491,0.153-0.84v-6.969c0-0.328-0.052-0.591-0.153-0.791
	c-0.102-0.2-0.24-0.354-0.412-0.463c-0.17-0.11-0.373-0.182-0.604-0.218c-0.229-0.037-0.47-0.055-0.727-0.055h-0.067v-0.938h3.551
	l0.44,2.214h0.112c0.15-0.334,0.304-0.648,0.466-0.944c0.154-0.293,0.349-0.552,0.58-0.773c0.23-0.222,0.513-0.396,0.851-0.523
	c0.339-0.127,0.765-0.191,1.275-0.191c0.84,0,1.467,0.142,1.875,0.425c0.412,0.284,0.615,0.683,0.615,1.2
	c0,0.233-0.037,0.447-0.116,0.643c-0.079,0.197-0.206,0.366-0.379,0.507c-0.172,0.142-0.395,0.252-0.664,0.327
	c-0.272,0.077-0.604,0.115-0.993,0.115c0-0.617-0.093-1.063-0.271-1.336c-0.183-0.272-0.497-0.408-0.947-0.408
	c-0.287,0-0.542,0.078-0.77,0.233c-0.224,0.157-0.42,0.364-0.591,0.623c-0.17,0.258-0.311,0.555-0.428,0.889
	c-0.116,0.334-0.21,0.679-0.282,1.032c-0.07,0.351-0.121,0.702-0.152,1.051c-0.03,0.349-0.043,0.666-0.043,0.949v3.512
	c0,0.327,0.049,0.59,0.149,0.791c0.104,0.199,0.24,0.35,0.414,0.452c0.172,0.103,0.371,0.169,0.603,0.202
	c0.23,0.033,0.472,0.049,0.728,0.049h0.642V49.048z"/>
<path fill="#8F9699" d="M286.584,48.088c0.279,0,0.534-0.015,0.765-0.043c0.235-0.029,0.475-0.066,0.711-0.109v0.982
	c-0.095,0.043-0.225,0.087-0.382,0.13c-0.158,0.043-0.329,0.083-0.512,0.114c-0.186,0.034-0.379,0.059-0.582,0.078
	c-0.204,0.019-0.395,0.027-0.576,0.027c-0.586,0-1.091-0.061-1.511-0.179c-0.42-0.121-0.767-0.315-1.037-0.584
	c-0.272-0.268-0.473-0.625-0.605-1.068c-0.128-0.443-0.198-0.985-0.198-1.625v-7.46h-1.76v-0.895c0.278,0,0.586-0.054,0.923-0.163
	c0.333-0.109,0.628-0.291,0.882-0.545c0.266-0.277,0.478-0.606,0.64-0.987c0.162-0.382,0.304-0.86,0.425-1.434h1.059v2.749h3.021
	v1.276h-3.021v7.525c0,0.764,0.158,1.324,0.479,1.679C285.623,47.91,286.049,48.088,286.584,48.088z"/>
<path fill="#8F9699" d="M293.443,49.266c-0.578,0-1.105-0.048-1.574-0.148c-0.47-0.097-0.87-0.247-1.203-0.446
	c-0.328-0.2-0.586-0.448-0.765-0.742c-0.181-0.295-0.271-0.638-0.271-1.031c0-0.299,0.051-0.547,0.15-0.747
	c0.104-0.2,0.226-0.358,0.374-0.474c0.146-0.116,0.303-0.198,0.474-0.246c0.168-0.047,0.322-0.07,0.457-0.07
	c0,0.393,0.042,0.76,0.124,1.101c0.08,0.343,0.222,0.642,0.417,0.901c0.195,0.258,0.453,0.461,0.773,0.61
	c0.317,0.149,0.711,0.223,1.176,0.223c0.417,0,0.777-0.049,1.094-0.147c0.316-0.098,0.582-0.236,0.798-0.415
	c0.215-0.177,0.377-0.393,0.49-0.642c0.112-0.252,0.169-0.525,0.169-0.824c0-0.276-0.043-0.515-0.128-0.715
	c-0.087-0.199-0.24-0.386-0.451-0.561c-0.218-0.175-0.508-0.353-0.878-0.535c-0.366-0.181-0.829-0.389-1.386-0.622
	c-0.593-0.255-1.11-0.499-1.55-0.736c-0.44-0.237-0.804-0.493-1.088-0.77c-0.287-0.276-0.502-0.591-0.644-0.944
	c-0.144-0.352-0.215-0.772-0.215-1.259c0-0.509,0.102-0.96,0.309-1.353c0.208-0.392,0.503-0.721,0.886-0.987
	c0.385-0.265,0.844-0.467,1.377-0.605c0.533-0.138,1.128-0.208,1.783-0.208c0.549,0,1.032,0.055,1.455,0.164
	c0.42,0.108,0.772,0.255,1.059,0.442c0.288,0.184,0.5,0.402,0.646,0.655c0.141,0.249,0.212,0.514,0.212,0.79
	c0,0.407-0.145,0.733-0.433,0.976c-0.291,0.243-0.703,0.365-1.236,0.365c0-0.748-0.158-1.33-0.479-1.745
	c-0.32-0.414-0.82-0.622-1.508-0.622c-0.391,0-0.724,0.043-1.001,0.131c-0.28,0.087-0.508,0.211-0.684,0.371
	c-0.178,0.16-0.306,0.349-0.389,0.567c-0.084,0.218-0.124,0.458-0.124,0.72c0,0.284,0.053,0.529,0.157,0.737
	c0.104,0.206,0.274,0.398,0.502,0.572c0.229,0.174,0.524,0.344,0.891,0.506c0.365,0.165,0.804,0.349,1.313,0.551
	c0.611,0.247,1.133,0.491,1.569,0.731c0.435,0.24,0.795,0.501,1.077,0.785c0.28,0.284,0.49,0.604,0.625,0.96
	C297.932,44.889,298,45.3,298,45.766c0,0.582-0.108,1.09-0.327,1.527c-0.217,0.436-0.525,0.801-0.926,1.097
	c-0.397,0.293-0.88,0.513-1.437,0.659C294.748,49.194,294.128,49.266,293.443,49.266z"/>
</svg>
